{
  "accessors": [
    {
      "bufferView": 2,
      "componentType": 5126,
      "count": 627,
      "max": [
        0.8832510709762573,
        1.7939422130584717,
        0.13149379193782806
      ],
      "min": [
        -0.8832509517669678,
        1.2119321823120117,
        -0.16697737574577332
      ],
      "type": "VEC3"
    },
    {
      "bufferView": 2,
      "byteOffset": 7524,
      "componentType": 5126,
      "count": 627,
      "max": [
        0.9998311996459961,
        1.0,
        0.998451292514801
      ],
      "min": [
        -0.9998311996459961,
        -1.0,
        -0.998451292514801
      ],
      "type": "VEC3"
    },
    {
      "bufferView": 3,
      "componentType": 5126,
      "count": 627,
      "max": [
        0.9395030736923218,
        0.9981130361557007,
        1.0,
        1.0
      ],
      "min": [
        -0.9395050406455994,
        -0.9981130361557007,
        -1.0,
        1.0
      ],
      "type": "VEC4"
    },
    {
      "bufferView": 1,
      "componentType": 5126,
      "count": 627,
      "max": [
        0.18777376413345337,
        0.8680849075317383
      ],
      "min": [
        0.0457855649292469,
        0.5877832174301147
      ],
      "type": "VEC2"
    },
    {
      "bufferView": 0,
      "componentType": 5125,
      "count": 3456,
      "type": "SCALAR"
    },
    {
      "bufferView": 2,
      "byteOffset": 15048,
      "componentType": 5126,
      "count": 2927,
      "max": [
        0.9872310161590576,
        1.2281218767166138,
        0.9467477798461914
      ],
      "min": [
        -0.9872310161590576,
        -0.89127516746521,
        -1.0049725770950317
      ],
      "type": "VEC3"
    },
    {
      "bufferView": 2,
      "byteOffset": 50172,
      "componentType": 5126,
      "count": 2927,
      "max": [
        1.0,
        1.0,
        1.0
      ],
      "min": [
        -1.0,
        -1.0,
        -1.0
      ],
      "type": "VEC3"
    },
    {
      "bufferView": 1,
      "byteOffset": 5016,
      "componentType": 5126,
      "count": 2927,
      "max": [
        0.7680560350418091,
        0.9998506307601929
      ],
      "min": [
        0.0001494270982220769,
        0.0001494270982220769
      ],
      "type": "VEC2"
    },
    {
      "bufferView": 0,
      "byteOffset": 13824,
      "componentType": 5125,
      "count": 15840,
      "type": "SCALAR"
    },
    {
      "bufferView": 2,
      "byteOffset": 85296,
      "componentType": 5126,
      "count": 1108,
      "max": [
        0.3223317265510559,
        0.2790335416793823,
        2.2201626300811768
      ],
      "min": [
        -0.31268733739852905,
        -0.2492579221725464,
        2.1851699352264404
      ],
      "type": "VEC3"
    },
    {
      "bufferView": 2,
      "byteOffset": 98592,
      "componentType": 5126,
      "count": 1108,
      "max": [
        0.9999263286590576,
        0.9999979734420776,
        0.9999964237213135
      ],
      "min": [
        -0.9998918771743774,
        -0.998867392539978,
        -0.0
      ],
      "type": "VEC3"
    },
    {
      "bufferView": 3,
      "byteOffset": 10032,
      "componentType": 5126,
      "count": 1108,
      "max": [
        0.9999980330467224,
        0.9984050989151001,
        1.0,
        1.0
      ],
      "min": [
        -0.9999843239784241,
        -0.9999783635139465,
        -1.0,
        1.0
      ],
      "type": "VEC4"
    },
    {
      "bufferView": 1,
      "byteOffset": 28432,
      "componentType": 5126,
      "count": 1108,
      "max": [
        1.0,
        0.9394984841346741
      ],
      "min": [
        0.0,
        0.0
      ],
      "type": "VEC2"
    },
    {
      "bufferView": 0,
      "byteOffset": 77184,
      "componentType": 5125,
      "count": 4128,
      "type": "SCALAR"
    }
  ],
  "asset": {
    "extras": {
      "author": "Ya (https://sketchfab.com/Yarik16)",
      "license": "CC-BY-4.0 (http://creativecommons.org/licenses/by/4.0/)",
      "source": "https://sketchfab.com/3d-models/kettlebell-33d7aecfa8504b52b4740e684eb0eaca",
      "title": "Kettlebell"
    },
    "generator": "Sketchfab-12.66.0",
    "version": "2.0"
  },
  "bufferViews": [
    {
      "buffer": 0,
      "byteLength": 93696,
      "name": "floatBufferViews",
      "target": 34963
    },
    {
      "buffer": 0,
      "byteLength": 37296,
      "byteOffset": 93696,
      "byteStride": 8,
      "name": "floatBufferViews",
      "target": 34962
    },
    {
      "buffer": 0,
      "byteLength": 111888,
      "byteOffset": 130992,
      "byteStride": 12,
      "name": "floatBufferViews",
      "target": 34962
    },
    {
      "buffer": 0,
      "byteLength": 27760,
      "byteOffset": 242880,
      "byteStride": 16,
      "name": "floatBufferViews",
      "target": 34962
    }
  ],
  "buffers": [
    {
      "byteLength": 270640,
      "uri": "scene.bin"
    }
  ],
  "images": [
    {
      "uri": "textures/iron_baseColor.png"
    },
    {
      "uri": "textures/iron_metallicRoughness.png"
    },
    {
      "uri": "textures/iron_normal.png"
    },
    {
      "uri": "textures/yellow_baseColor.png"
    },
    {
      "uri": "textures/yellow_metallicRoughness.png"
    },
    {
      "uri": "textures/material_baseColor.png"
    },
    {
      "uri": "textures/material_metallicRoughness.png"
    },
    {
      "uri": "textures/material_normal.png"
    }
  ],
  "materials": [
    {
      "doubleSided": true,
      "name": "iron",
      "normalTexture": {
        "index": 2
      },
      "pbrMetallicRoughness": {
        "baseColorTexture": {
          "index": 0
        },
        "metallicRoughnessTexture": {
          "index": 1
        }
      }
    },
    {
      "doubleSided": true,
      "name": "yellow",
      "pbrMetallicRoughness": {
        "baseColorTexture": {
          "index": 3
        },
        "metallicRoughnessTexture": {
          "index": 4
        }
      }
    },
    {
      "doubleSided": true,
      "name": "material",
      "normalTexture": {
        "index": 7
      },
      "pbrMetallicRoughness": {
        "baseColorTexture": {
          "index": 5
        },
        "metallicRoughnessTexture": {
          "index": 6
        }
      }
    }
  ],
  "meshes": [
    {
      "name": "Object_0",
      "primitives": [
        {
          "attributes": {
            "NORMAL": 1,
            "POSITION": 0,
            "TANGENT": 2,
            "TEXCOORD_0": 3
          },
          "indices": 4,
          "material": 0,
          "mode": 4
        }
      ]
    },
    {
      "name": "Object_1",
      "primitives": [
        {
          "attributes": {
            "NORMAL": 6,
            "POSITION": 5,
            "TEXCOORD_0": 7
          },
          "indices": 8,
          "material": 1,
          "mode": 4
        }
      ]
    },
    {
      "name": "Object_2",
      "primitives": [
        {
          "attributes": {
            "NORMAL": 10,
            "POSITION": 9,
            "TANGENT": 11,
            "TEXCOORD_0": 12
          },
          "indices": 13,
          "material": 2,
          "mode": 4
        }
      ]
    }
  ],
  "nodes": [
    {
      "children": [
        1
      ],
      "matrix": [
        1.0,
        0.0,
        0.0,
        0.0,
        0.0,
        2.220446049250313e-16,
        -1.0,
        0.0,
        0.0,
        1.0,
        2.220446049250313e-16,
        0.0,
        0.0,
        0.0,
        0.0,
        1.0
      ],
      "name": "Sketchfab_model"
    },
    {
      "children": [
        2
      ],
      "name": "root"
    },
    {
      "children": [
        3,
        6
      ],
      "matrix": [
        1.0,
        0.0,
        0.0,
        0.0,
        0.0,
        2.220446049250313e-16,
        1.0,
        0.0,
        0.0,
        -1.0,
        2.220446049250313e-16,
        0.0,
        0.0,
        0.0,
        0.0,
        1.0
      ],
      "name": "GLTF_SceneRootNode"
    },
    {
      "children": [
        4,
        5
      ],
      "matrix": [
        1.631385326385498,
        0.0,
        0.0,
        0.0,
        0.0,
        1.631385326385498,
        0.0,
        0.0,
        0.0,
        0.0,
        1.631385326385498,
        0.0,
        0.0,
        0.0,
        0.0,
        1.0
      ],
      "name": "kettlebell_2"
    },
    {
      "mesh": 0,
      "name": "Object_4"
    },
    {
      "mesh": 1,
      "name": "Object_5"
    },
    {
      "children": [
        7
      ],
      "matrix": [
        0.6989347338676453,
        0.0,
        0.0,
        0.0,
        0.0,
        0.6989347338676453,
        0.0,
        0.0,
        0.0,
        0.0,
        0.6989347338676453,
        0.0,
        0.0,
        0.0,
        0.0,
        1.0
      ],
      "name": "24_3"
    },
    {
      "mesh": 2,
      "name": "Object_7"
    }
  ],
  "samplers": [
    {
      "magFilter": 9729,
      "minFilter": 9987,
      "wrapS": 10497,
      "wrapT": 10497
    }
  ],
  "scene": 0,
  "scenes": [
    {
      "name": "Sketchfab_Scene",
      "nodes": [
        0
      ]
    }
  ],
  "textures": [
    {
      "sampler": 0,
      "source": 0
    },
    {
      "sampler": 0,
      "source": 1
    },
    {
      "sampler": 0,
      "source": 2
    },
    {
      "sampler": 0,
      "source": 3
    },
    {
      "sampler": 0,
      "source": 4
    },
    {
      "sampler": 0,
      "source": 5
    },
    {
      "sampler": 0,
      "source": 6
    },
    {
      "sampler": 0,
      "source": 7
    }
  ]
}
