{
  "accessors": [
    {
      "bufferView": 2,
      "componentType": 5126,
      "count": 17866,
      "max": [
        1.3248306512832642,
        5.409099102020264,
        1.3248306512832642
      ],
      "min": [
        -1.6295247077941895,
        0.052671197801828384,
        -1.3248308897018433
      ],
      "type": "VEC3"
    },
    {
      "bufferView": 2,
      "byteOffset": 214392,
      "componentType": 5126,
      "count": 17866,
      "max": [
        1.0,
        0.9999550580978394,
        1.0
      ],
      "min": [
        -1.0,
        -1.0,
        -1.0
      ],
      "type": "VEC3"
    },
    {
      "bufferView": 1,
      "componentType": 5126,
      "count": 17866,
      "max": [
        0.65625,
        0.6884398460388184
      ],
      "min": [
        0.3437499701976776,
        -7.450580596923828e-08
      ],
      "type": "VEC2"
    },
    {
      "bufferView": 0,
      "componentType": 5125,
      "count": 105696,
      "type": "SCALAR"
    },
    {
      "bufferView": 2,
      "byteOffset": 428784,
      "componentType": 5126,
      "count": 5151,
      "max": [
        1.221628189086914,
        5.311008453369141,
        1.2216870784759521
      ],
      "min": [
        -1.221703290939331,
        4.972957611083984,
        -1.2215462923049927
      ],
      "type": "VEC3"
    },
    {
      "bufferView": 2,
      "byteOffset": 490596,
      "componentType": 5126,
      "count": 5151,
      "max": [
        1.0,
        0.9998744130134583,
        0.9999856352806091
      ],
      "min": [
        -1.0,
        -0.9998742938041687,
        -0.9999856948852539
      ],
      "type": "VEC3"
    },
    {
      "bufferView": 1,
      "byteOffset": 142928,
      "componentType": 5126,
      "count": 5151,
      "max": [
        0.65625,
        1.0
      ],
      "min": [
        0.34375,
        1.4901161193847656e-08
      ],
      "type": "VEC2"
    },
    {
      "bufferView": 0,
      "byteOffset": 422784,
      "componentType": 5125,
      "count": 28896,
      "type": "SCALAR"
    },
    {
      "bufferView": 2,
      "byteOffset": 552408,
      "componentType": 5126,
      "count": 259,
      "max": [
        -1.0112577676773071,
        4.992553234100342,
        -0.1527373194694519
      ],
      "min": [
        -1.3301279544830322,
        4.776586055755615,
        -0.18909187614917755
      ],
      "type": "VEC3"
    },
    {
      "bufferView": 2,
      "byteOffset": 555516,
      "componentType": 5126,
      "count": 259,
      "max": [
        0.920673668384552,
        0.9803052544593811,
        1.0
      ],
      "min": [
        -0.9994237422943115,
        -0.9995957612991333,
        -1.0
      ],
      "type": "VEC3"
    },
    {
      "bufferView": 1,
      "byteOffset": 184136,
      "componentType": 5126,
      "count": 259,
      "max": [
        0.875,
        1.0
      ],
      "min": [
        0.125,
        0.0
      ],
      "type": "VEC2"
    },
    {
      "bufferView": 0,
      "byteOffset": 538368,
      "componentType": 5125,
      "count": 1296,
      "type": "SCALAR"
    },
    {
      "bufferView": 2,
      "byteOffset": 558624,
      "componentType": 5126,
      "count": 259,
      "max": [
        -1.0112577676773071,
        4.992553234100342,
        0.18670794367790222
      ],
      "min": [
        -1.3301279544830322,
        4.776586055755615,
        0.15035343170166016
      ],
      "type": "VEC3"
    },
    {
      "bufferView": 2,
      "byteOffset": 561732,
      "componentType": 5126,
      "count": 259,
      "max": [
        0.9206693768501282,
        0.9803052544593811,
        1.0
      ],
      "min": [
        -0.9994233250617981,
        -0.9995957612991333,
        -1.0
      ],
      "type": "VEC3"
    },
    {
      "bufferView": 1,
      "byteOffset": 186208,
      "componentType": 5126,
      "count": 259,
      "max": [
        0.875,
        1.0
      ],
      "min": [
        0.125,
        0.0
      ],
      "type": "VEC2"
    },
    {
      "bufferView": 0,
      "byteOffset": 543552,
      "componentType": 5125,
      "count": 1296,
      "type": "SCALAR"
    },
    {
      "bufferView": 2,
      "byteOffset": 564840,
      "componentType": 5126,
      "count": 8681,
      "max": [
        1.2854886054992676,
        5.76270866394043,
        1.285487174987793
      ],
      "min": [
        -1.285487413406372,
        4.998159408569336,
        -1.2854872941970825
      ],
      "type": "VEC3"
    },
    {
      "bufferView": 2,
      "byteOffset": 669012,
      "componentType": 5126,
      "count": 8681,
      "max": [
        1.0,
        1.0,
        0.9999969601631165
      ],
      "min": [
        -1.0,
        -1.0,
        -0.9999969601631165
      ],
      "type": "VEC3"
    },
    {
      "bufferView": 1,
      "byteOffset": 188280,
      "componentType": 5126,
      "count": 8681,
      "max": [
        1.0,
        1.0
      ],
      "min": [
        0.0,
        0.0
      ],
      "type": "VEC2"
    },
    {
      "bufferView": 0,
      "byteOffset": 548736,
      "componentType": 5125,
      "count": 44352,
      "type": "SCALAR"
    },
    {
      "bufferView": 2,
      "byteOffset": 773184,
      "componentType": 5126,
      "count": 4930,
      "max": [
        12.087178230285645,
        4.6486053466796875,
        -0.792351484298706
      ],
      "min": [
        4.60602331161499,
        -4.6286091804504395,
        -2.761765241622925
      ],
      "type": "VEC3"
    },
    {
      "bufferView": 2,
      "byteOffset": 832344,
      "componentType": 5126,
      "count": 4930,
      "max": [
        1.0,
        1.0,
        1.0
      ],
      "min": [
        -1.0,
        -1.0,
        -1.0
      ],
      "type": "VEC3"
    },
    {
      "bufferView": 1,
      "byteOffset": 257728,
      "componentType": 5126,
      "count": 4930,
      "max": [
        0.65625,
        1.0
      ],
      "min": [
        0.3437499701976776,
        -7.450580596923828e-08
      ],
      "type": "VEC2"
    },
    {
      "bufferView": 0,
      "byteOffset": 726144,
      "componentType": 5125,
      "count": 27936,
      "type": "SCALAR"
    },
    {
      "bufferView": 2,
      "byteOffset": 891504,
      "componentType": 5126,
      "count": 14154,
      "max": [
        0.42689332365989685,
        5.821939468383789,
        0.9816833734512329
      ],
      "min": [
        -0.4088766574859619,
        5.60710334777832,
        -1.0062543153762817
      ],
      "type": "VEC3"
    },
    {
      "bufferView": 2,
      "byteOffset": 1061352,
      "componentType": 5126,
      "count": 14154,
      "max": [
        1.0,
        1.0,
        0.9999990463256836
      ],
      "min": [
        -1.0,
        -1.0,
        -0.9999999403953552
      ],
      "type": "VEC3"
    },
    {
      "bufferView": 1,
      "byteOffset": 297168,
      "componentType": 5126,
      "count": 14154,
      "max": [
        1.0,
        1.0
      ],
      "min": [
        0.0,
        0.0
      ],
      "type": "VEC2"
    },
    {
      "bufferView": 0,
      "byteOffset": 837888,
      "componentType": 5125,
      "count": 71616,
      "type": "SCALAR"
    },
    {
      "bufferView": 2,
      "byteOffset": 1231200,
      "componentType": 5126,
      "count": 464,
      "max": [
        0.4661293923854828,
        5.853643894195557,
        1.1311410665512085
      ],
      "min": [
        -0.4676119387149811,
        5.402463912963867,
        0.6214859485626221
      ],
      "type": "VEC3"
    },
    {
      "bufferView": 2,
      "byteOffset": 1236768,
      "componentType": 5126,
      "count": 464,
      "max": [
        1.0,
        0.9993798136711121,
        0.9570293426513672
      ],
      "min": [
        -1.0,
        -1.0,
        -0.9570292234420776
      ],
      "type": "VEC3"
    },
    {
      "bufferView": 1,
      "byteOffset": 410400,
      "componentType": 5126,
      "count": 464,
      "max": [
        0.875,
        1.0
      ],
      "min": [
        0.125,
        0.0
      ],
      "type": "VEC2"
    },
    {
      "bufferView": 0,
      "byteOffset": 1124352,
      "componentType": 5125,
      "count": 2376,
      "type": "SCALAR"
    }
  ],
  "asset": {
    "extras": {
      "author": "ali_hidayat (https://sketchfab.com/ali_hidayat)",
      "license": "CC-BY-4.0 (http://creativecommons.org/licenses/by/4.0/)",
      "source": "https://sketchfab.com/3d-models/gym-shaker-bottle-38d6d1c01caa499cbbe2c4b2a037b073",
      "title": "Gym Shaker Bottle"
    },
    "generator": "Sketchfab-12.65.0",
    "version": "2.0"
  },
  "bufferViews": [
    {
      "buffer": 0,
      "byteLength": 1133856,
      "name": "floatBufferViews",
      "target": 34963
    },
    {
      "buffer": 0,
      "byteLength": 414112,
      "byteOffset": 1133856,
      "byteStride": 8,
      "name": "floatBufferViews",
      "target": 34962
    },
    {
      "buffer": 0,
      "byteLength": 1242336,
      "byteOffset": 1547968,
      "byteStride": 12,
      "name": "floatBufferViews",
      "target": 34962
    }
  ],
  "buffers": [
    {
      "byteLength": 2790304,
      "uri": "scene.bin"
    }
  ],
  "extensionsUsed": [
    "KHR_materials_transmission"
  ],
  "materials": [
    {
      "alphaMode": "BLEND",
      "doubleSided": true,
      "extensions": {
        "KHR_materials_transmission": {
          "transmissionFactor": 0.020000000000000018
        }
      },
      "name": "aiStandardSurface5",
      "pbrMetallicRoughness": {
        "baseColorFactor": [
          0.03402510352347739,
          0.016609315452371508,
          0.009548013147754218,
          0.98
        ],
        "metallicFactor": 0.0,
        "roughnessFactor": 0.3482799190120935
      }
    },
    {
      "doubleSided": true,
      "name": "lambert1",
      "pbrMetallicRoughness": {
        "baseColorFactor": [
          0.04723210897924687,
          0.023322815267991442,
          0.013444710084745003,
          1.0
        ],
        "metallicFactor": 0.0,
        "roughnessFactor": 0.6
      }
    },
    {
      "doubleSided": true,
      "name": "aiStandardSurface1",
      "pbrMetallicRoughness": {
        "baseColorFactor": [
          0.940665205793594,
          0.03524723372706968,
          0.03524723372706968,
          1.0
        ],
        "metallicFactor": 0.3239592263587667,
        "roughnessFactor": 0.5610859797287027
      }
    },
    {
      "doubleSided": true,
      "name": "aiStandardSurface3",
      "pbrMetallicRoughness": {
        "baseColorFactor": [
          0.0,
          0.0,
          0.0,
          1.0
        ],
        "metallicFactor": 0.117,
        "roughnessFactor": 0.481
      }
    },
    {
      "doubleSided": true,
      "name": "aiStandardSurface2",
      "pbrMetallicRoughness": {
        "baseColorFactor": [
          0.0,
          0.0,
          0.0,
          1.0
        ],
        "metallicFactor": 0.11723333880548918,
        "roughnessFactor": 0.4814752324146192
      }
    },
    {
      "doubleSided": true,
      "name": "aiStandardSurface4",
      "pbrMetallicRoughness": {
        "baseColorFactor": [
          0.938685728457888,
          0.035601314875020336,
          0.035601314875020336,
          1.0
        ],
        "metallicFactor": 0.324,
        "roughnessFactor": 0.561
      }
    }
  ],
  "meshes": [
    {
      "name": "pCylinder1_aiStandardSurface5_0",
      "primitives": [
        {
          "attributes": {
            "NORMAL": 1,
            "POSITION": 0,
            "TEXCOORD_0": 2
          },
          "indices": 3,
          "material": 0,
          "mode": 4
        }
      ]
    },
    {
      "name": "pHelix1_lambert1_0",
      "primitives": [
        {
          "attributes": {
            "NORMAL": 5,
            "POSITION": 4,
            "TEXCOORD_0": 6
          },
          "indices": 7,
          "material": 1,
          "mode": 4
        }
      ]
    },
    {
      "name": "pCube1_lambert1_0",
      "primitives": [
        {
          "attributes": {
            "NORMAL": 9,
            "POSITION": 8,
            "TEXCOORD_0": 10
          },
          "indices": 11,
          "material": 1,
          "mode": 4
        }
      ]
    },
    {
      "name": "pCube2_lambert1_0",
      "primitives": [
        {
          "attributes": {
            "NORMAL": 13,
            "POSITION": 12,
            "TEXCOORD_0": 14
          },
          "indices": 15,
          "material": 1,
          "mode": 4
        }
      ]
    },
    {
      "name": "pCylinder2_aiStandardSurface1_0",
      "primitives": [
        {
          "attributes": {
            "NORMAL": 17,
            "POSITION": 16,
            "TEXCOORD_0": 18
          },
          "indices": 19,
          "material": 2,
          "mode": 4
        }
      ]
    },
    {
      "name": "polySurface1_aiStandardSurface3_0",
      "primitives": [
        {
          "attributes": {
            "NORMAL": 21,
            "POSITION": 20,
            "TEXCOORD_0": 22
          },
          "indices": 23,
          "material": 3,
          "mode": 4
        }
      ]
    },
    {
      "name": "polySurface2_aiStandardSurface2_0",
      "primitives": [
        {
          "attributes": {
            "NORMAL": 25,
            "POSITION": 24,
            "TEXCOORD_0": 26
          },
          "indices": 27,
          "material": 4,
          "mode": 4
        }
      ]
    },
    {
      "name": "pCube9_aiStandardSurface4_0",
      "primitives": [
        {
          "attributes": {
            "NORMAL": 29,
            "POSITION": 28,
            "TEXCOORD_0": 30
          },
          "indices": 31,
          "material": 5,
          "mode": 4
        }
      ]
    }
  ],
  "nodes": [
    {
      "children": [
        1
      ],
      "matrix": [
        4.479109764099121,
        0.0,
        0.0,
        0.0,
        0.0,
        9.945621579852395e-16,
        -4.479109764099121,
        0.0,
        0.0,
        4.479109764099121,
        9.945621579852395e-16,
        0.0,
        0.0,
        0.0,
        0.0,
        1.0
      ],
      "name": "Sketchfab_model"
    },
    {
      "children": [
        2
      ],
      "matrix": [
        0.009999999776482582,
        0.0,
        0.0,
        0.0,
        0.0,
        0.0,
        0.009999999776482582,
        0.0,
        0.0,
        -0.009999999776482582,
        0.0,
        0.0,
        0.0,
        0.0,
        0.0,
        1.0
      ],
      "name": "e41a4a80ef5542a590cf79d1372eb11c.fbx"
    },
    {
      "children": [
        3,
        5,
        7,
        9,
        11,
        13,
        16,
        18
      ],
      "name": "RootNode"
    },
    {
      "children": [
        4
      ],
      "matrix": [
        1.0,
        0.0,
        0.0,
        0.0,
        0.0,
        1.0,
        0.0,
        0.0,
        0.0,
        0.0,
        1.0,
        0.0,
        -0.007298211567103863,
        0.0,
        0.0,
        1.0
      ],
      "name": "pCylinder1"
    },
    {
      "mesh": 0,
      "name": "pCylinder1_aiStandardSurface5_0"
    },
    {
      "children": [
        6
      ],
      "matrix": [
        1.0,
        0.0,
        0.0,
        0.0,
        0.0,
        1.0,
        0.0,
        0.0,
        0.0,
        0.0,
        1.0,
        0.0,
        -0.007298211567103863,
        0.0,
        0.0,
        1.0
      ],
      "name": "pHelix1"
    },
    {
      "mesh": 1,
      "name": "pHelix1_lambert1_0"
    },
    {
      "children": [
        8
      ],
      "matrix": [
        1.0,
        0.0,
        0.0,
        0.0,
        0.0,
        1.0,
        0.0,
        0.0,
        0.0,
        0.0,
        1.0,
        0.0,
        -0.007298211567103863,
        0.0,
        0.0,
        1.0
      ],
      "name": "pCube1"
    },
    {
      "mesh": 2,
      "name": "pCube1_lambert1_0"
    },
    {
      "children": [
        10
      ],
      "matrix": [
        1.0,
        0.0,
        0.0,
        0.0,
        0.0,
        1.0,
        0.0,
        0.0,
        0.0,
        0.0,
        1.0,
        0.0,
        -0.007298211567103863,
        0.0,
        0.0,
        1.0
      ],
      "name": "pCube2"
    },
    {
      "mesh": 3,
      "name": "pCube2_lambert1_0"
    },
    {
      "children": [
        12
      ],
      "matrix": [
        1.0,
        0.0,
        0.0,
        0.0,
        0.0,
        1.0,
        0.0,
        0.0,
        0.0,
        0.0,
        1.0,
        0.0,
        -0.007298211567103863,
        0.0,
        0.0,
        1.0
      ],
      "name": "pCylinder2"
    },
    {
      "mesh": 4,
      "name": "pCylinder2_aiStandardSurface1_0"
    },
    {
      "children": [
        14
      ],
      "matrix": [
        3.242049790324928e-17,
        0.0927658021901936,
        0.029486340330159008,
        0.0,
        -0.09733929485082626,
        3.242049790324928e-17,
        2.7017081586041065e-18,
        0.0,
        -2.7017081586041065e-18,
        -0.029486340330159008,
        0.0927658021901936,
        0.0,
        0.006279141176491976,
        5.155752658843994,
        0.8870453238487244,
        1.0
      ],
      "name": "pCylinder5"
    },
    {
      "children": [
        15
      ],
      "matrix": [
        0.6795125671883772,
        -3.0814879110195767e-33,
        0.7336638678802856,
        0.0,
        7.251308360033461e-33,
        1.0,
        -2.515957687155036e-33,
        0.0,
        -0.7336638678802856,
        7.02964780555085e-33,
        0.6795125671883772,
        0.0,
        0.48799556493759155,
        0.07497702538967133,
        -4.671238899230957,
        1.0
      ],
      "name": "polySurface1"
    },
    {
      "mesh": 5,
      "name": "polySurface1_aiStandardSurface3_0"
    },
    {
      "children": [
        17
      ],
      "matrix": [
        1.0,
        0.0,
        0.0,
        0.0,
        0.0,
        0.9170775451394787,
        0.3987088865337057,
        0.0,
        0.0,
        -0.3987088865337057,
        0.9170775451394787,
        0.0,
        -0.007298211567103863,
        0.8281955122947693,
        -2.209634304046631,
        1.0
      ],
      "name": "polySurface2"
    },
    {
      "mesh": 6,
      "name": "polySurface2_aiStandardSurface2_0"
    },
    {
      "children": [
        19
      ],
      "name": "pCube9"
    },
    {
      "mesh": 7,
      "name": "pCube9_aiStandardSurface4_0"
    }
  ],
  "scene": 0,
  "scenes": [
    {
      "name": "Sketchfab_Scene",
      "nodes": [
        0
      ]
    }
  ]
}
